# xmcd
#
# Track frame offsets:
#	182
#	12577
#	26750
#	43140
#	59067
#	71217
#	81792
#	91615
#	102797
#	114022
#	127527
#	136807
#	149127
#	159370
#	172107
#	187147
#	200942
#	214257
#	224992
#	237745
#	249635
#	262172
#	273180
#	286700
#
# Disc length: 3953 seconds
# Revision: 2
# Processed by: cddbd v1.5.2PL0 Copyright (c) Steve Scherf et al.
# Submitted via: dBpowerAMP V12.0
#
DISCID=7e0f6f18
DTITLE=Eddy Arnold - Welcome To My World
DYEAR=1995
DGENRE=Country
TTITLE0=Cattle Call
TTITLE1=Streets Of Laredo
TTITLE2=Cool Water
TTITLE3=A Cowboy's Dream
TTITLE4=Tumbling Tumbleweeds
TTITLE5=Carry Me Back To The Lone Prairie
TTITLE6=Tom Dooley
TTITLE7=Cotton Fields
TTITLE8=Sixteen Tons
TTITLE9=Blowin' In The Wind
TTITLE10=Wreck Of The Old '97
TTITLE11=Where Have All The Flowers Gone
TTITLE12=New World In The Morning
TTITLE13=Song Sung Blue
TTITLE14=For The Good Times
TTITLE15=[They Long To Be] Close To You
TTITLE16=Daddy,Don't You Walk So Fast
TTITLE17=Help Me Make It Through The Night
TTITLE18=Then You Can Tell Me Goodbye
TTITLE19=I'm Throwing Rice [At The Girl I LOVE]
TTITLE20=You Don't Know Me
TTITLE21=It's A Sin
TTITLE22=The Tip Of My Fingers
TTITLE23=I'd Trade All Of My Tomorrows
EXTD=
EXTT0=
EXTT1=
EXTT2=
EXTT3=
EXTT4=
EXTT5=
EXTT6=
EXTT7=
EXTT8=
EXTT9=
EXTT10=
EXTT11=
EXTT12=
EXTT13=
EXTT14=
EXTT15=
EXTT16=
EXTT17=
EXTT18=
EXTT19=
EXTT20=
EXTT21=
EXTT22=
EXTT23=
PLAYORDER=
